<svg xmlns="http://www.w3.org/2000/svg" width="1200" height="280" viewBox="0 0 1200 280" role="img" aria-labelledby="title description">
  <title id="title">ddocde</title>
  <desc id="description">Systems, tooling, and the paths between them.</desc>
  <defs>
    <linearGradient id="background" x1="0" y1="0" x2="1" y2="1">
      <stop offset="0" stop-color="#0f172a"/>
      <stop offset="0.55" stop-color="#172554"/>
      <stop offset="1" stop-color="#134e4a"/>
    </linearGradient>
    <radialGradient id="glow" cx="50%" cy="50%" r="50%">
      <stop offset="0" stop-color="#38bdf8" stop-opacity=".35"/>
      <stop offset="1" stop-color="#38bdf8" stop-opacity="0"/>
    </radialGradient>
    <filter id="blur">
      <feGaussianBlur stdDeviation="24"/>
    </filter>
  </defs>
  <rect width="1200" height="280" rx="24" fill="url(#background)"/>
  <circle cx="180" cy="42" r="150" fill="url(#glow)" filter="url(#blur)"/>
  <circle cx="1030" cy="245" r="190" fill="url(#glow)" filter="url(#blur)"/>
  <g fill="none" stroke="#67e8f9" stroke-opacity=".32" stroke-width="1.5">
    <path d="M52 222 195 166 310 211 443 122 578 180"/>
    <path d="M730 75 835 134 948 82 1142 154"/>
    <path d="M744 213 858 182 1004 222 1144 190"/>
  </g>
  <g fill="#5eead4">
    <circle cx="52" cy="222" r="4"/><circle cx="195" cy="166" r="5"/>
    <circle cx="310" cy="211" r="4"/><circle cx="443" cy="122" r="5"/>
    <circle cx="578" cy="180" r="4"/><circle cx="730" cy="75" r="4"/>
    <circle cx="835" cy="134" r="5"/><circle cx="948" cy="82" r="4"/>
    <circle cx="1142" cy="154" r="5"/><circle cx="744" cy="213" r="4"/>
    <circle cx="858" cy="182" r="5"/><circle cx="1004" cy="222" r="4"/>
    <circle cx="1144" cy="190" r="4"/>
  </g>
  <text x="600" y="122" text-anchor="middle" fill="#f8fafc" font-family="Inter, ui-sans-serif, system-ui, sans-serif" font-size="64" font-weight="700" letter-spacing="4">DDOCDE</text>
  <text x="600" y="166" text-anchor="middle" fill="#a5f3fc" font-family="Inter, ui-sans-serif, system-ui, sans-serif" font-size="20" letter-spacing="2">SYSTEMS · TOOLING · DISTRIBUTED DATA</text>
  <text x="600" y="211" text-anchor="middle" fill="#cbd5e1" font-family="Inter, ui-sans-serif, system-ui, sans-serif" font-size="17">Build clearly. Measure honestly. Automate carefully.</text>
</svg>
